{
    "asset" : {
        "generator" : "Khronos glTF Blender I/O v0.9.36",
        "version" : "2.0"
    },
    "scene" : 0,
    "scenes" : [
        {
            "name" : "Scene",
            "nodes" : [
                0
            ]
        }
    ],
    "nodes" : [
        {
            "mesh" : 0,
            "name" : "7",
            "rotation" : [
                0.7071068286895752,
                0,
                0,
                0.7071067094802856
            ],
            "scale" : [
                0.07663048803806305,
                0.07683689147233963,
                0.07680286467075348
            ]
        }
    ],
    "materials" : [
        {
            "doubleSided" : true,
            "emissiveFactor" : [
                0,
                0,
                0
            ],
            "name" : "wire_115115115",
            "normalTexture" : {
                "index" : 0,
                "texCoord" : 0
            },
            "occlusionTexture" : {
                "index" : 1,
                "texCoord" : 0
            },
            "pbrMetallicRoughness" : {
                "baseColorFactor" : [
                    0.8898910284042358,
                    0.864702045917511,
                    1,
                    1
                ],
                "baseColorTexture" : {
                    "index" : 2,
                    "texCoord" : 0
                },
                "metallicFactor" : 0.6583333015441895,
                "roughnessFactor" : 0.9666666388511658
            }
        }
    ],
    "meshes" : [
        {
            "name" : "7",
            "primitives" : [
                {
                    "attributes" : {
                        "POSITION" : 0,
                        "NORMAL" : 1,
                        "TEXCOORD_0" : 2
                    },
                    "indices" : 3,
                    "material" : 0
                },
                {
                    "attributes" : {
                        "POSITION" : 4,
                        "NORMAL" : 5,
                        "TEXCOORD_0" : 6
                    },
                    "indices" : 7,
                    "material" : 0
                },
                {
                    "attributes" : {
                        "POSITION" : 8,
                        "NORMAL" : 9,
                        "TEXCOORD_0" : 10
                    },
                    "indices" : 11,
                    "material" : 0
                }
            ]
        }
    ],
    "textures" : [
        {
            "source" : 0
        },
        {
            "source" : 1
        },
        {
            "source" : 2
        }
    ],
    "images" : [
        {
            "mimeType" : "image/jpeg",
            "name" : "wood_0012_normal_2k",
            "uri" : "wood_0012_normal_2k.jpg"
        },
        {
            "mimeType" : "image/jpeg",
            "name" : "wood_0012_ao_2k",
            "uri" : "wood_0012_ao_2k.jpg"
        },
        {
            "mimeType" : "image/jpeg",
            "name" : "wood_0012_base_color_2k",
            "uri" : "wood_0012_base_color_2k.jpg"
        }
    ],
    "accessors" : [
        {
            "bufferView" : 0,
            "componentType" : 5126,
            "count" : 65535,
            "max" : [
                14.038999557495117,
                29.371200561523438,
                0
            ],
            "min" : [
                -32.417701721191406,
                -31.40690040588379,
                -33.72269821166992
            ],
            "type" : "VEC3"
        },
        {
            "bufferView" : 1,
            "componentType" : 5126,
            "count" : 65535,
            "type" : "VEC3"
        },
        {
            "bufferView" : 2,
            "componentType" : 5126,
            "count" : 65535,
            "type" : "VEC2"
        },
        {
            "bufferView" : 3,
            "componentType" : 5123,
            "count" : 288249,
            "type" : "SCALAR"
        },
        {
            "bufferView" : 4,
            "componentType" : 5126,
            "count" : 45721,
            "max" : [
                12.06410026550293,
                -6.748600006103516,
                0
            ],
            "min" : [
                -26.484899520874023,
                -30.821300506591797,
                -33.72269821166992
            ],
            "type" : "VEC3"
        },
        {
            "bufferView" : 5,
            "componentType" : 5126,
            "count" : 45721,
            "type" : "VEC3"
        },
        {
            "bufferView" : 6,
            "componentType" : 5126,
            "count" : 45721,
            "type" : "VEC2"
        },
        {
            "bufferView" : 7,
            "componentType" : 5123,
            "count" : 213915,
            "type" : "SCALAR"
        },
        {
            "bufferView" : 8,
            "componentType" : 5126,
            "count" : 32,
            "max" : [
                6.851500034332275,
                -9.651700019836426,
                -17.683300018310547
            ],
            "min" : [
                -6.718900203704834,
                -17.19879913330078,
                -17.701799392700195
            ],
            "type" : "VEC3"
        },
        {
            "bufferView" : 9,
            "componentType" : 5126,
            "count" : 32,
            "type" : "VEC3"
        },
        {
            "bufferView" : 10,
            "componentType" : 5126,
            "count" : 32,
            "type" : "VEC2"
        },
        {
            "bufferView" : 11,
            "componentType" : 5123,
            "count" : 48,
            "type" : "SCALAR"
        }
    ],
    "bufferViews" : [
        {
            "buffer" : 0,
            "byteLength" : 786420,
            "byteOffset" : 0
        },
        {
            "buffer" : 0,
            "byteLength" : 786420,
            "byteOffset" : 786420
        },
        {
            "buffer" : 0,
            "byteLength" : 524280,
            "byteOffset" : 1572840
        },
        {
            "buffer" : 0,
            "byteLength" : 576498,
            "byteOffset" : 2097120
        },
        {
            "buffer" : 0,
            "byteLength" : 548652,
            "byteOffset" : 2673620
        },
        {
            "buffer" : 0,
            "byteLength" : 548652,
            "byteOffset" : 3222272
        },
        {
            "buffer" : 0,
            "byteLength" : 365768,
            "byteOffset" : 3770924
        },
        {
            "buffer" : 0,
            "byteLength" : 427830,
            "byteOffset" : 4136692
        },
        {
            "buffer" : 0,
            "byteLength" : 384,
            "byteOffset" : 4564524
        },
        {
            "buffer" : 0,
            "byteLength" : 384,
            "byteOffset" : 4564908
        },
        {
            "buffer" : 0,
            "byteLength" : 256,
            "byteOffset" : 4565292
        },
        {
            "buffer" : 0,
            "byteLength" : 96,
            "byteOffset" : 4565548
        }
    ],
    "buffers" : [
        {
            "byteLength" : 4565644,
            "uri" : "masa_si_scaune.bin"
        }
    ]
}
