{
    "asset" : {
        "generator" : "Khronos glTF Blender I/O v0.9.36",
        "version" : "2.0"
    },
    "scene" : 0,
    "scenes" : [
        {
            "name" : "Scene",
            "nodes" : [
                0
            ]
        }
    ],
    "nodes" : [
        {
            "mesh" : 0,
            "name" : "chair_004",
            "rotation" : [
                0.4998880922794342,
                -0.5001119375228882,
                0.500111997127533,
                0.49988800287246704
            ],
            "scale" : [
                0.0594404935836792,
                1,
                1
            ],
            "translation" : [
                0,
                0.9981880187988281,
                0
            ]
        }
    ],
    "materials" : [
        {
            "doubleSided" : true,
            "name" : "Mat",
            "pbrMetallicRoughness" : {
                "baseColorFactor" : [
                    0.800000011920929,
                    0.800000011920929,
                    0.800000011920929,
                    1
                ],
                "metallicFactor" : 0,
                "roughnessFactor" : 0.5
            }
        }
    ],
    "meshes" : [
        {
            "name" : "Plane.001",
            "primitives" : [
                {
                    "attributes" : {
                        "POSITION" : 0,
                        "NORMAL" : 1
                    },
                    "indices" : 2,
                    "material" : 0
                }
            ]
        }
    ],
    "accessors" : [
        {
            "bufferView" : 0,
            "componentType" : 5126,
            "count" : 283,
            "max" : [
                20.626808166503906,
                1.004254937171936,
                0.8650426864624023
            ],
            "min" : [
                -19.617061614990234,
                -0.9957454800605774,
                -2.630885124206543
            ],
            "type" : "VEC3"
        },
        {
            "bufferView" : 1,
            "componentType" : 5126,
            "count" : 283,
            "type" : "VEC3"
        },
        {
            "bufferView" : 2,
            "componentType" : 5123,
            "count" : 1488,
            "type" : "SCALAR"
        }
    ],
    "bufferViews" : [
        {
            "buffer" : 0,
            "byteLength" : 3396,
            "byteOffset" : 0
        },
        {
            "buffer" : 0,
            "byteLength" : 3396,
            "byteOffset" : 3396
        },
        {
            "buffer" : 0,
            "byteLength" : 2976,
            "byteOffset" : 6792
        }
    ],
    "buffers" : [
        {
            "byteLength" : 9768,
            "uri" : "chair_004.bin"
        }
    ]
}
