{
    "asset" : {
        "generator" : "Khronos glTF Blender I/O v0.9.36",
        "version" : "2.0"
    },
    "scene" : 0,
    "scenes" : [
        {
            "name" : "Scene",
            "nodes" : [
                0
            ]
        }
    ],
    "nodes" : [
        {
            "mesh" : 0,
            "name" : "chair_004",
            "rotation" : [
                0.4998880922794342,
                -0.5001119375228882,
                0.500111997127533,
                0.49988800287246704
            ],
            "scale" : [
                0.0594404935836792,
                1,
                1
            ],
            "translation" : [
                0,
                0.8700891137123108,
                0
            ]
        }
    ],
    "materials" : [
        {
            "doubleSided" : true,
            "emissiveFactor" : [
                0,
                0,
                0
            ],
            "name" : "Material.003",
            "normalTexture" : {
                "index" : 0,
                "texCoord" : 0
            },
            "pbrMetallicRoughness" : {
                "baseColorFactor" : [
                    1,
                    1,
                    1,
                    1
                ],
                "baseColorTexture" : {
                    "index" : 1,
                    "texCoord" : 0
                },
                "metallicFactor" : 0.4416666626930237,
                "roughnessFactor" : 0.7333333492279053
            }
        }
    ],
    "meshes" : [
        {
            "name" : "Plane.001",
            "primitives" : [
                {
                    "attributes" : {
                        "POSITION" : 0,
                        "NORMAL" : 1,
                        "TANGENT" : 2,
                        "TEXCOORD_0" : 3
                    },
                    "indices" : 4,
                    "material" : 0
                }
            ]
        }
    ],
    "textures" : [
        {
            "source" : 0
        },
        {
            "source" : 1
        }
    ],
    "images" : [
        {
            "mimeType" : "image/png",
            "name" : "Image_0",
            "uri" : "Image_0.png"
        },
        {
            "mimeType" : "image/png",
            "name" : "Image_1",
            "uri" : "Image_1.png"
        }
    ],
    "accessors" : [
        {
            "bufferView" : 0,
            "componentType" : 5126,
            "count" : 489,
            "max" : [
                20.626808166503906,
                1.004254937171936,
                0.8650426864624023
            ],
            "min" : [
                -19.617061614990234,
                -0.9957454800605774,
                -2.630885124206543
            ],
            "type" : "VEC3"
        },
        {
            "bufferView" : 1,
            "componentType" : 5126,
            "count" : 489,
            "type" : "VEC3"
        },
        {
            "bufferView" : 2,
            "componentType" : 5126,
            "count" : 489,
            "type" : "VEC4"
        },
        {
            "bufferView" : 3,
            "componentType" : 5126,
            "count" : 489,
            "type" : "VEC2"
        },
        {
            "bufferView" : 4,
            "componentType" : 5123,
            "count" : 1488,
            "type" : "SCALAR"
        }
    ],
    "bufferViews" : [
        {
            "buffer" : 0,
            "byteLength" : 5868,
            "byteOffset" : 0
        },
        {
            "buffer" : 0,
            "byteLength" : 5868,
            "byteOffset" : 5868
        },
        {
            "buffer" : 0,
            "byteLength" : 7824,
            "byteOffset" : 11736
        },
        {
            "buffer" : 0,
            "byteLength" : 3912,
            "byteOffset" : 19560
        },
        {
            "buffer" : 0,
            "byteLength" : 2976,
            "byteOffset" : 23472
        }
    ],
    "buffers" : [
        {
            "byteLength" : 26448,
            "uri" : "chair_004.bin"
        }
    ]
}
