{
    "asset" : {
        "generator" : "Khronos glTF Blender I/O v0.9.36",
        "version" : "2.0"
    },
    "scene" : 0,
    "scenes" : [
        {
            "name" : "Scene",
            "nodes" : [
                0,
                1
            ]
        }
    ],
    "nodes" : [
		{
            "mesh" : 0,
            "name" : "Plane",
            "rotation" : [
                0.7071068286895752,
                0,
                0,
                0.7071067094802856
            ],
            "translation" : [
                0,
                0.9983612298965454,
                -0.20670047402381897
            ]
        },
        {
            "mesh" : 1,
            "name" : "Cube",
            "rotation" : [
                0.7071068286895752,
                0,
                0,
                0.7071067094802856
            ]
        }
    ],
    "materials" : [
        {
            "doubleSided" : true,
            "emissiveFactor" : [
                0,
                0,
                0
            ],
            "name" : "CubeMaterial",
            "pbrMetallicRoughness" : {
                "baseColorFactor" : [
                    1,
                    1,
                    1,
                    1
                ],
                "metallicFactor" : 1,
                "roughnessFactor" : 1
            }
        },
        {
            "doubleSided" : true,
            "emissiveFactor" : [
                0,
                0,
                0
            ],
            "name" : "PlaneMaterial",
            "pbrMetallicRoughness" : {
                "baseColorFactor" : [
                    1,
                    1,
                    1,
                    1
                ],
                "metallicFactor" : 1,
                "roughnessFactor" : 1
            }
        }
    ],
    "meshes" : [
		{
            "name" : "Plane",
            "primitives" : [
                {
                    "attributes" : {
                        "POSITION" : 4,
                        "NORMAL" : 5,
                        "TEXCOORD_0" : 6
                    },
                    "indices" : 7,
                    "material" : 1
                }
            ]
        },
        {
            "name" : "Cube",
            "primitives" : [
                {
                    "attributes" : {
                        "POSITION" : 0,
                        "NORMAL" : 1,
                        "TEXCOORD_0" : 2
                    },
                    "indices" : 3,
                    "material" : 0
                }
            ]
        }
    ],
    "accessors" : [
        {
            "bufferView" : 0,
            "componentType" : 5126,
            "count" : 2210,
            "max" : [
                0.790420651435852,
                0.8454914689064026,
                -0.000604674220085144
            ],
            "min" : [
                -0.790420651435852,
                -0.8454914689064026,
                -1.0396751165390015
            ],
            "type" : "VEC3"
        },
        {
            "bufferView" : 1,
            "componentType" : 5126,
            "count" : 2210,
            "type" : "VEC3"
        },
        {
            "bufferView" : 2,
            "componentType" : 5126,
            "count" : 2210,
            "type" : "VEC2"
        },
        {
            "bufferView" : 3,
            "componentType" : 5123,
            "count" : 2232,
            "type" : "SCALAR"
        },
        {
            "bufferView" : 4,
            "componentType" : 5126,
            "count" : 2932,
            "max" : [
                1.0527915954589844,
                1.0051040649414062,
                0.051277756690979004
            ],
            "min" : [
                -1.0527915954589844,
                -0.8318144083023071,
                -1.3698811531066895
            ],
            "type" : "VEC3"
        },
        {
            "bufferView" : 5,
            "componentType" : 5126,
            "count" : 2932,
            "type" : "VEC3"
        },
        {
            "bufferView" : 6,
            "componentType" : 5126,
            "count" : 2932,
            "type" : "VEC2"
        },
        {
            "bufferView" : 7,
            "componentType" : 5123,
            "count" : 15000,
            "type" : "SCALAR"
        }
    ],
    "bufferViews" : [
        {
            "buffer" : 0,
            "byteLength" : 26520,
            "byteOffset" : 0
        },
        {
            "buffer" : 0,
            "byteLength" : 26520,
            "byteOffset" : 26520
        },
        {
            "buffer" : 0,
            "byteLength" : 17680,
            "byteOffset" : 53040
        },
        {
            "buffer" : 0,
            "byteLength" : 4464,
            "byteOffset" : 70720
        },
        {
            "buffer" : 0,
            "byteLength" : 35184,
            "byteOffset" : 75184
        },
        {
            "buffer" : 0,
            "byteLength" : 35184,
            "byteOffset" : 110368
        },
        {
            "buffer" : 0,
            "byteLength" : 23456,
            "byteOffset" : 145552
        },
        {
            "buffer" : 0,
            "byteLength" : 30000,
            "byteOffset" : 169008
        }
    ],
    "buffers" : [
        {
            "byteLength" : 199008,
            "uri" : "chair_001.bin"
        }
    ]
}
