{
    "asset" : {
        "generator" : "Khronos glTF Blender I/O v0.9.36",
        "version" : "2.0"
    },
    "extensionsUsed" : [
        "KHR_texture_transform"
    ],
    "extensionsRequired" : [
        "KHR_texture_transform"
    ],
    "scene" : 0,
    "scenes" : [
        {
            "name" : "Scene",
            "nodes" : [
                0,
                1
            ]
        }
    ],
    "nodes" : [
        {
            "mesh" : 0,
            "name" : "HyperNURBS Cube5",
            "rotation" : [
                -0.7071065902709961,
                0,
                0,
                0.7071069478988647
            ],
            "scale" : [
                0.009999980218708515,
                0.00999999139457941,
                0.01000000350177288
            ],
            "translation" : [
                -0.009606599807739258,
                1.0194671154022217,
                0
            ]
        },
        {
            "mesh" : 1,
            "name" : "Plane",
            "scale" : [
                0.798972487449646,
                0.798972487449646,
                0.798972487449646
            ],
            "translation" : [
                -0.05147740617394447,
                1.8410440683364868,
                0.47083786129951477
            ]
        }
    ],
    "materials" : [
        {
            "doubleSided" : true,
            "emissiveFactor" : [
                0,
                0,
                0
            ],
            "name" : "Mat",
            "pbrMetallicRoughness" : {
                "baseColorFactor" : [
                    1,
                    1,
                    1,
                    1
                ],
                "baseColorTexture" : {
                    "index" : 0,
                    "texCoord" : 0
                },
                "metallicFactor" : 0,
                "roughnessFactor" : 0.6416666507720947
            }
        },
        {
            "doubleSided" : true,
            "emissiveFactor" : [
                0,
                0,
                0
            ],
            "name" : "Material.001",
            "normalTexture" : {
                "index" : 1,
                "texCoord" : 0
            },
            "occlusionTexture" : {
                "index" : 2,
                "texCoord" : 0
            },
            "pbrMetallicRoughness" : {
                "baseColorFactor" : [
                    1,
                    1,
                    1,
                    1
                ],
                "baseColorTexture" : {
                    "extensions" : {
                        "KHR_texture_transform" : {
                            "offset" : [
                                0,
                                -2.5
                            ],
                            "scale" : [
                                3.5,
                                3.5
                            ]
                        }
                    },
                    "index" : 3,
                    "texCoord" : 0
                },
                "metallicFactor" : 1,
                "roughnessFactor" : 1
            }
        }
    ],
    "meshes" : [
        {
            "name" : "HyperNURBS Cube5",
            "primitives" : [
                {
                    "attributes" : {
                        "POSITION" : 0,
                        "NORMAL" : 1,
                        "TEXCOORD_0" : 2
                    },
                    "indices" : 3,
                    "material" : 0
                }
            ]
        },
        {
            "name" : "Plane",
            "primitives" : [
                {
                    "attributes" : {
                        "POSITION" : 4,
                        "NORMAL" : 5,
                        "TEXCOORD_0" : 6
                    },
                    "indices" : 7,
                    "material" : 1
                }
            ]
        }
    ],
    "textures" : [
        {
            "source" : 0
        },
        {
            "source" : 1
        },
        {
            "source" : 2
        },
        {
            "source" : 3
        }
    ],
    "images" : [
        {
            "mimeType" : "image/png",
            "name" : "Image_1",
            "uri" : "Image_1.png"
        },
        {
            "mimeType" : "image/png",
            "name" : "material_lana_nrm",
            "uri" : "material_lana_nrm.png"
        },
        {
            "mimeType" : "image/png",
            "name" : "material_lana_occ",
            "uri" : "material_lana_occ.png"
        },
        {
            "mimeType" : "image/png",
            "name" : "material_lana_diffuse",
            "uri" : "material_lana_diffuse.png"
        }
    ],
    "accessors" : [
        {
            "bufferView" : 0,
            "componentType" : 5126,
            "count" : 41634,
            "max" : [
                93.5950698852539,
                130.1833038330078,
                191.1255340576172
            ],
            "min" : [
                -93.60131072998047,
                -114.43395233154297,
                -90.06539154052734
            ],
            "type" : "VEC3"
        },
        {
            "bufferView" : 1,
            "componentType" : 5126,
            "count" : 41634,
            "type" : "VEC3"
        },
        {
            "bufferView" : 2,
            "componentType" : 5126,
            "count" : 41634,
            "type" : "VEC2"
        },
        {
            "bufferView" : 3,
            "componentType" : 5123,
            "count" : 45312,
            "type" : "SCALAR"
        },
        {
            "bufferView" : 4,
            "componentType" : 5126,
            "count" : 296,
            "max" : [
                1.2616908550262451,
                0.062068670988082886,
                1.1430319547653198
            ],
            "min" : [
                -1.1740518808364868,
                -0.27391839027404785,
                -1.3199535608291626
            ],
            "type" : "VEC3"
        },
        {
            "bufferView" : 5,
            "componentType" : 5126,
            "count" : 296,
            "type" : "VEC3"
        },
        {
            "bufferView" : 6,
            "componentType" : 5126,
            "count" : 296,
            "type" : "VEC2"
        },
        {
            "bufferView" : 7,
            "componentType" : 5123,
            "count" : 444,
            "type" : "SCALAR"
        }
    ],
    "bufferViews" : [
        {
            "buffer" : 0,
            "byteLength" : 499608,
            "byteOffset" : 0
        },
        {
            "buffer" : 0,
            "byteLength" : 499608,
            "byteOffset" : 499608
        },
        {
            "buffer" : 0,
            "byteLength" : 333072,
            "byteOffset" : 999216
        },
        {
            "buffer" : 0,
            "byteLength" : 90624,
            "byteOffset" : 1332288
        },
        {
            "buffer" : 0,
            "byteLength" : 3552,
            "byteOffset" : 1422912
        },
        {
            "buffer" : 0,
            "byteLength" : 3552,
            "byteOffset" : 1426464
        },
        {
            "buffer" : 0,
            "byteLength" : 2368,
            "byteOffset" : 1430016
        },
        {
            "buffer" : 0,
            "byteLength" : 888,
            "byteOffset" : 1432384
        }
    ],
    "buffers" : [
        {
            "byteLength" : 1433272,
            "uri" : "chair_003.bin"
        }
    ]
}
