{
    "asset" : {
        "generator" : "Khronos glTF Blender I/O v0.9.36",
        "version" : "2.0"
    },
    "scene" : 0,
    "scenes" : [
        {
            "name" : "ChairTest",
            "nodes" : [
                0,
                1
            ]
        }
    ],
    "nodes" : [
        {
            "mesh" : 0,
            "name" : "Cube"
        },
        {
            "mesh" : 1,
            "name" : "Plane",
            "translation" : [
                0,
                0.9983611106872559,
                -0.20670057833194733
            ]
        }
    ],
    "materials" : [
        {
            "doubleSided" : true,
            "emissiveFactor" : [
                1,
                1,
                1
            ],
            "name" : "Material.001",
            "pbrMetallicRoughness" : {}
        },
        {
            "doubleSided" : true,
            "emissiveFactor" : [
                1,
                1,
                1
            ],
            "name" : "Material",
            "pbrMetallicRoughness" : {}
        }
    ],
    "meshes" : [
        {
            "name" : "Cube.001",
            "primitives" : [
                {
                    "attributes" : {
                        "POSITION" : 0,
                        "NORMAL" : 1,
                        "TEXCOORD_0" : 2
                    },
                    "indices" : 3,
                    "material" : 0
                }
            ]
        },
        {
            "name" : "Plane",
            "primitives" : [
                {
                    "attributes" : {
                        "POSITION" : 4,
                        "NORMAL" : 5,
                        "TEXCOORD_0" : 6
                    },
                    "indices" : 7,
                    "material" : 1
                }
            ]
        }
    ],
    "accessors" : [
        {
            "bufferView" : 0,
            "componentType" : 5126,
            "count" : 1328,
            "max" : [
                0.790420651435852,
                1.0341545343399048,
                0.8454914689064026
            ],
            "min" : [
                -0.790420651435852,
                0.000604674220085144,
                -0.8454914689064026
            ],
            "type" : "VEC3"
        },
        {
            "bufferView" : 1,
            "componentType" : 5126,
            "count" : 1328,
            "type" : "VEC3"
        },
        {
            "bufferView" : 2,
            "componentType" : 5126,
            "count" : 1328,
            "type" : "VEC2"
        },
        {
            "bufferView" : 3,
            "componentType" : 5123,
            "count" : 2232,
            "type" : "SCALAR"
        },
        {
            "bufferView" : 4,
            "componentType" : 5126,
            "count" : 2931,
            "max" : [
                1.0527915954589844,
                1.3698811531066895,
                1.0051040649414062
            ],
            "min" : [
                -1.0527915954589844,
                -0.051277756690979004,
                -0.8318144083023071
            ],
            "type" : "VEC3"
        },
        {
            "bufferView" : 5,
            "componentType" : 5126,
            "count" : 2931,
            "type" : "VEC3"
        },
        {
            "bufferView" : 6,
            "componentType" : 5126,
            "count" : 2931,
            "type" : "VEC2"
        },
        {
            "bufferView" : 7,
            "componentType" : 5123,
            "count" : 15000,
            "type" : "SCALAR"
        }
    ],
    "bufferViews" : [
        {
            "buffer" : 0,
            "byteLength" : 15936,
            "byteOffset" : 0
        },
        {
            "buffer" : 0,
            "byteLength" : 15936,
            "byteOffset" : 15936
        },
        {
            "buffer" : 0,
            "byteLength" : 10624,
            "byteOffset" : 31872
        },
        {
            "buffer" : 0,
            "byteLength" : 4464,
            "byteOffset" : 42496
        },
        {
            "buffer" : 0,
            "byteLength" : 35172,
            "byteOffset" : 46960
        },
        {
            "buffer" : 0,
            "byteLength" : 35172,
            "byteOffset" : 82132
        },
        {
            "buffer" : 0,
            "byteLength" : 23448,
            "byteOffset" : 117304
        },
        {
            "buffer" : 0,
            "byteLength" : 30000,
            "byteOffset" : 140752
        }
    ],
    "buffers" : [
        {
            "byteLength" : 170752,
            "uri" : "data:application/octet-stream;base64,"
        }
    ]
}
