{
    "asset" : {
        "generator" : "Khronos glTF Blender I/O v0.9.36",
        "version" : "2.0"
    },
    "scene" : 0,
    "scenes" : [
        {
            "name" : "Scene",
            "nodes" : [
                0
            ]
        }
    ],
    "nodes" : [
        {
            "mesh" : 0,
            "name" : "HyperNURBS Cube5",
            "rotation" : [
                1,
                0,
                0,
                -1.3435885648505064e-07
            ],
            "scale" : [
                0.009999980218708515,
                0.010000002570450306,
                0.009999990463256836
            ],
            "translation" : [
                -0.009606599807739258,
                1.0194669961929321,
                0
            ]
        }
    ],
    "materials" : [
        {
            "doubleSided" : true,
            "name" : "Mat",
            "pbrMetallicRoughness" : {
                "baseColorFactor" : [
                    0.800000011920929,
                    0.800000011920929,
                    0.800000011920929,
                    1
                ],
                "metallicFactor" : 0,
                "roughnessFactor" : 0.5
            }
        }
    ],
    "meshes" : [
        {
            "name" : "HyperNURBS Cube5",
            "primitives" : [
                {
                    "attributes" : {
                        "POSITION" : 0,
                        "NORMAL" : 1,
                        "TEXCOORD_0" : 2
                    },
                    "indices" : 3,
                    "material" : 0
                }
            ]
        }
    ],
    "accessors" : [
        {
            "bufferView" : 0,
            "componentType" : 5126,
            "count" : 31432,
            "max" : [
                93.5950698852539,
                104.24585723876953,
                130.18328857421875
            ],
            "min" : [
                -93.60131072998047,
                -176.945068359375,
                -114.4339599609375
            ],
            "type" : "VEC3"
        },
        {
            "bufferView" : 1,
            "componentType" : 5126,
            "count" : 31432,
            "type" : "VEC3"
        },
        {
            "bufferView" : 2,
            "componentType" : 5126,
            "count" : 31432,
            "type" : "VEC2"
        },
        {
            "bufferView" : 3,
            "componentType" : 5123,
            "count" : 45312,
            "type" : "SCALAR"
        }
    ],
    "bufferViews" : [
        {
            "buffer" : 0,
            "byteLength" : 377184,
            "byteOffset" : 0
        },
        {
            "buffer" : 0,
            "byteLength" : 377184,
            "byteOffset" : 377184
        },
        {
            "buffer" : 0,
            "byteLength" : 251456,
            "byteOffset" : 754368
        },
        {
            "buffer" : 0,
            "byteLength" : 90624,
            "byteOffset" : 1005824
        }
    ],
    "buffers" : [
        {
            "byteLength" : 1096448,
            "uri" : "chair_003.bin"
        }
    ]
}
